<mxfile host="app.diagrams.net" modified="2021-11-04T07:43:08.082Z" agent="5.0 (Windows NT 10.0; Win64; x64) AppleWebKit/537.36 (KHTML, like Gecko) Chrome/95.0.4638.69 Safari/537.36" etag="APv6x9wf9wic6Qx2i8Jz" version="15.5.9" type="github">
  <diagram name="Page-1" id="74e2e168-ea6b-b213-b513-2b3c1d86103e">
    <mxGraphModel dx="2573" dy="1134" grid="1" gridSize="10" guides="1" tooltips="1" connect="1" arrows="1" fold="1" page="1" pageScale="1" pageWidth="1100" pageHeight="850" background="none" math="0" shadow="0">
      <root>
        <mxCell id="0" />
        <mxCell id="1" parent="0" />
        <mxCell id="77e6c97f196da883-1" value="&lt;span style=&quot;font-family: &amp;#34;helvetica&amp;#34; ; font-size: 12px&quot;&gt;create-react-app/createReactApp.js&lt;/span&gt;" style="swimlane;html=1;childLayout=stackLayout;startSize=20;rounded=0;shadow=0;labelBackgroundColor=none;strokeWidth=1;fontFamily=Verdana;fontSize=8;align=center;" parent="1" vertex="1">
          <mxGeometry x="-330" y="30" width="1360" height="780" as="geometry">
            <mxRectangle x="70" y="40" width="60" height="20" as="alternateBounds" />
          </mxGeometry>
        </mxCell>
        <mxCell id="77e6c97f196da883-2" value="init" style="swimlane;html=1;startSize=20;" parent="77e6c97f196da883-1" vertex="1">
          <mxGeometry y="20" width="330" height="760" as="geometry">
            <mxRectangle y="20" width="30" height="730" as="alternateBounds" />
          </mxGeometry>
        </mxCell>
        <mxCell id="z6YjeSEmc34uNPCmeLSA-3" value="" style="edgeStyle=orthogonalEdgeStyle;rounded=0;orthogonalLoop=1;jettySize=auto;html=1;" edge="1" parent="77e6c97f196da883-2" source="77e6c97f196da883-8" target="z6YjeSEmc34uNPCmeLSA-2">
          <mxGeometry relative="1" as="geometry" />
        </mxCell>
        <object label="&lt;span style=&quot;font-size: 8px&quot;&gt;&amp;nbsp;new commander.Command()&lt;/span&gt;" id="77e6c97f196da883-8">
          <mxCell style="rounded=1;whiteSpace=wrap;html=1;shadow=0;labelBackgroundColor=none;strokeWidth=1;fontFamily=Verdana;fontSize=8;align=center;" parent="77e6c97f196da883-2" vertex="1">
            <mxGeometry x="65" y="160" width="190" height="50" as="geometry" />
          </mxCell>
        </object>
        <mxCell id="z6YjeSEmc34uNPCmeLSA-51" style="edgeStyle=orthogonalEdgeStyle;rounded=0;orthogonalLoop=1;jettySize=auto;html=1;entryX=0.5;entryY=0;entryDx=0;entryDy=0;" edge="1" parent="77e6c97f196da883-2" source="z6YjeSEmc34uNPCmeLSA-2" target="z6YjeSEmc34uNPCmeLSA-4">
          <mxGeometry relative="1" as="geometry">
            <Array as="points">
              <mxPoint x="80" y="360" />
              <mxPoint x="80" y="540" />
            </Array>
          </mxGeometry>
        </mxCell>
        <mxCell id="z6YjeSEmc34uNPCmeLSA-2" value="检查项目名和脚手架版本" style="rhombus;whiteSpace=wrap;html=1;labelBackgroundColor=#FFFFFF;" vertex="1" parent="77e6c97f196da883-2">
          <mxGeometry x="120" y="330" width="80" height="80" as="geometry" />
        </mxCell>
        <mxCell id="z6YjeSEmc34uNPCmeLSA-4" value="process.exit(1);" style="rounded=1;whiteSpace=wrap;html=1;labelBackgroundColor=#FFFFFF;" vertex="1" parent="77e6c97f196da883-2">
          <mxGeometry x="20" y="540" width="120" height="60" as="geometry" />
        </mxCell>
        <mxCell id="z6YjeSEmc34uNPCmeLSA-8" style="edgeStyle=orthogonalEdgeStyle;rounded=0;orthogonalLoop=1;jettySize=auto;html=1;entryX=0.5;entryY=0;entryDx=0;entryDy=0;" edge="1" parent="77e6c97f196da883-2" source="z6YjeSEmc34uNPCmeLSA-7" target="77e6c97f196da883-8">
          <mxGeometry relative="1" as="geometry" />
        </mxCell>
        <mxCell id="z6YjeSEmc34uNPCmeLSA-7" value="&lt;b&gt;init&lt;/b&gt;" style="rounded=1;whiteSpace=wrap;html=1;labelBackgroundColor=#FFFFFF;" vertex="1" parent="77e6c97f196da883-2">
          <mxGeometry x="100" y="40" width="120" height="60" as="geometry" />
        </mxCell>
        <mxCell id="z6YjeSEmc34uNPCmeLSA-49" value="不符合" style="text;html=1;align=center;verticalAlign=middle;resizable=0;points=[];autosize=1;strokeColor=none;fillColor=none;" vertex="1" parent="77e6c97f196da883-2">
          <mxGeometry x="30" y="430" width="50" height="20" as="geometry" />
        </mxCell>
        <mxCell id="77e6c97f196da883-4" value="createApp" style="swimlane;html=1;startSize=20;" parent="77e6c97f196da883-1" vertex="1">
          <mxGeometry x="330" y="20" width="360" height="760" as="geometry" />
        </mxCell>
        <mxCell id="z6YjeSEmc34uNPCmeLSA-53" style="edgeStyle=orthogonalEdgeStyle;rounded=0;orthogonalLoop=1;jettySize=auto;html=1;entryX=0.5;entryY=0;entryDx=0;entryDy=0;" edge="1" parent="77e6c97f196da883-4" source="z6YjeSEmc34uNPCmeLSA-25" target="z6YjeSEmc34uNPCmeLSA-26">
          <mxGeometry relative="1" as="geometry" />
        </mxCell>
        <mxCell id="z6YjeSEmc34uNPCmeLSA-25" value="&lt;b&gt;createApp&lt;/b&gt;" style="rounded=1;whiteSpace=wrap;html=1;labelBackgroundColor=#FFFFFF;" vertex="1" parent="77e6c97f196da883-4">
          <mxGeometry x="130" y="40" width="120" height="60" as="geometry" />
        </mxCell>
        <mxCell id="z6YjeSEmc34uNPCmeLSA-29" style="edgeStyle=orthogonalEdgeStyle;rounded=0;orthogonalLoop=1;jettySize=auto;html=1;entryX=0.5;entryY=0;entryDx=0;entryDy=0;" edge="1" parent="77e6c97f196da883-4" source="z6YjeSEmc34uNPCmeLSA-26" target="z6YjeSEmc34uNPCmeLSA-30">
          <mxGeometry relative="1" as="geometry">
            <mxPoint x="80" y="280" as="targetPoint" />
            <Array as="points">
              <mxPoint x="70" y="240" />
            </Array>
          </mxGeometry>
        </mxCell>
        <mxCell id="z6YjeSEmc34uNPCmeLSA-56" style="edgeStyle=orthogonalEdgeStyle;rounded=0;orthogonalLoop=1;jettySize=auto;html=1;entryX=0.5;entryY=0;entryDx=0;entryDy=0;" edge="1" parent="77e6c97f196da883-4" source="z6YjeSEmc34uNPCmeLSA-26" target="z6YjeSEmc34uNPCmeLSA-58">
          <mxGeometry relative="1" as="geometry">
            <mxPoint x="280" y="330" as="targetPoint" />
            <Array as="points">
              <mxPoint x="280" y="240" />
              <mxPoint x="280" y="340" />
              <mxPoint x="190" y="340" />
            </Array>
          </mxGeometry>
        </mxCell>
        <mxCell id="z6YjeSEmc34uNPCmeLSA-26" value="检查node版本" style="rhombus;whiteSpace=wrap;html=1;labelBackgroundColor=#FFFFFF;" vertex="1" parent="77e6c97f196da883-4">
          <mxGeometry x="150" y="200" width="80" height="80" as="geometry" />
        </mxCell>
        <mxCell id="z6YjeSEmc34uNPCmeLSA-30" value="&lt;span&gt;fallback react-scripts@0.9.x&lt;/span&gt;" style="rounded=1;whiteSpace=wrap;html=1;labelBackgroundColor=#FFFFFF;" vertex="1" parent="77e6c97f196da883-4">
          <mxGeometry x="10" y="330" width="120" height="60" as="geometry" />
        </mxCell>
        <mxCell id="z6YjeSEmc34uNPCmeLSA-33" value="&lt;span&gt;process.exit(1);&lt;/span&gt;" style="rounded=1;whiteSpace=wrap;html=1;labelBackgroundColor=#FFFFFF;" vertex="1" parent="77e6c97f196da883-4">
          <mxGeometry x="10" y="670" width="120" height="60" as="geometry" />
        </mxCell>
        <mxCell id="z6YjeSEmc34uNPCmeLSA-64" style="edgeStyle=orthogonalEdgeStyle;rounded=0;orthogonalLoop=1;jettySize=auto;html=1;entryX=0.386;entryY=0.033;entryDx=0;entryDy=0;entryPerimeter=0;" edge="1" parent="77e6c97f196da883-4" source="z6YjeSEmc34uNPCmeLSA-35" target="z6YjeSEmc34uNPCmeLSA-33">
          <mxGeometry relative="1" as="geometry" />
        </mxCell>
        <mxCell id="z6YjeSEmc34uNPCmeLSA-67" style="edgeStyle=orthogonalEdgeStyle;rounded=0;orthogonalLoop=1;jettySize=auto;html=1;entryX=0.75;entryY=0;entryDx=0;entryDy=0;" edge="1" parent="77e6c97f196da883-4" source="z6YjeSEmc34uNPCmeLSA-35" target="z6YjeSEmc34uNPCmeLSA-36">
          <mxGeometry relative="1" as="geometry">
            <Array as="points">
              <mxPoint x="288" y="600" />
            </Array>
          </mxGeometry>
        </mxCell>
        <mxCell id="z6YjeSEmc34uNPCmeLSA-35" value="&lt;span&gt;isSafeToCreateProjectIn&lt;/span&gt;" style="rhombus;whiteSpace=wrap;html=1;labelBackgroundColor=#FFFFFF;" vertex="1" parent="77e6c97f196da883-4">
          <mxGeometry x="140" y="555" width="100" height="90" as="geometry" />
        </mxCell>
        <mxCell id="z6YjeSEmc34uNPCmeLSA-36" value="fs.writeFileSync:package.json" style="rounded=1;whiteSpace=wrap;html=1;labelBackgroundColor=#FFFFFF;" vertex="1" parent="77e6c97f196da883-4">
          <mxGeometry x="160" y="670" width="170" height="60" as="geometry" />
        </mxCell>
        <mxCell id="z6YjeSEmc34uNPCmeLSA-59" style="edgeStyle=orthogonalEdgeStyle;rounded=0;orthogonalLoop=1;jettySize=auto;html=1;entryX=0.383;entryY=0.017;entryDx=0;entryDy=0;entryPerimeter=0;" edge="1" parent="77e6c97f196da883-4" source="z6YjeSEmc34uNPCmeLSA-58" target="z6YjeSEmc34uNPCmeLSA-33">
          <mxGeometry relative="1" as="geometry" />
        </mxCell>
        <mxCell id="z6YjeSEmc34uNPCmeLSA-60" value="不符合" style="edgeLabel;html=1;align=center;verticalAlign=middle;resizable=0;points=[];" vertex="1" connectable="0" parent="z6YjeSEmc34uNPCmeLSA-59">
          <mxGeometry x="-0.7222" y="-2" relative="1" as="geometry">
            <mxPoint as="offset" />
          </mxGeometry>
        </mxCell>
        <mxCell id="z6YjeSEmc34uNPCmeLSA-61" style="edgeStyle=orthogonalEdgeStyle;rounded=0;orthogonalLoop=1;jettySize=auto;html=1;entryX=0.5;entryY=0;entryDx=0;entryDy=0;" edge="1" parent="77e6c97f196da883-4" source="z6YjeSEmc34uNPCmeLSA-58" target="z6YjeSEmc34uNPCmeLSA-35">
          <mxGeometry relative="1" as="geometry" />
        </mxCell>
        <mxCell id="z6YjeSEmc34uNPCmeLSA-58" value="&lt;span&gt;checkAppName&lt;/span&gt;" style="rhombus;whiteSpace=wrap;html=1;labelBackgroundColor=#FFFFFF;" vertex="1" parent="77e6c97f196da883-4">
          <mxGeometry x="150" y="440" width="80" height="80" as="geometry" />
        </mxCell>
        <mxCell id="z6YjeSEmc34uNPCmeLSA-65" value="不安全" style="text;html=1;align=center;verticalAlign=middle;resizable=0;points=[];autosize=1;strokeColor=none;fillColor=none;" vertex="1" parent="77e6c97f196da883-4">
          <mxGeometry x="70" y="600" width="50" height="20" as="geometry" />
        </mxCell>
        <mxCell id="77e6c97f196da883-5" value="run" style="swimlane;html=1;startSize=20;" parent="77e6c97f196da883-1" vertex="1">
          <mxGeometry x="690" y="20" width="340" height="760" as="geometry" />
        </mxCell>
        <mxCell id="z6YjeSEmc34uNPCmeLSA-69" style="edgeStyle=orthogonalEdgeStyle;rounded=0;orthogonalLoop=1;jettySize=auto;html=1;" edge="1" parent="77e6c97f196da883-5" source="z6YjeSEmc34uNPCmeLSA-37" target="z6YjeSEmc34uNPCmeLSA-38">
          <mxGeometry relative="1" as="geometry" />
        </mxCell>
        <mxCell id="z6YjeSEmc34uNPCmeLSA-37" value="&lt;b&gt;run&lt;/b&gt;" style="rounded=1;whiteSpace=wrap;html=1;labelBackgroundColor=#FFFFFF;" vertex="1" parent="77e6c97f196da883-5">
          <mxGeometry x="120" y="80" width="120" height="60" as="geometry" />
        </mxCell>
        <mxCell id="z6YjeSEmc34uNPCmeLSA-70" style="edgeStyle=orthogonalEdgeStyle;rounded=0;orthogonalLoop=1;jettySize=auto;html=1;entryX=0.5;entryY=0;entryDx=0;entryDy=0;" edge="1" parent="77e6c97f196da883-5" source="z6YjeSEmc34uNPCmeLSA-38" target="z6YjeSEmc34uNPCmeLSA-39">
          <mxGeometry relative="1" as="geometry" />
        </mxCell>
        <mxCell id="z6YjeSEmc34uNPCmeLSA-38" value="getInstallPackage/getPackageInfo" style="rounded=1;whiteSpace=wrap;html=1;labelBackgroundColor=#FFFFFF;" vertex="1" parent="77e6c97f196da883-5">
          <mxGeometry x="120" y="210" width="120" height="60" as="geometry" />
        </mxCell>
        <mxCell id="z6YjeSEmc34uNPCmeLSA-39" value="checkIfOnline" style="rounded=1;whiteSpace=wrap;html=1;labelBackgroundColor=#FFFFFF;" vertex="1" parent="77e6c97f196da883-5">
          <mxGeometry x="120" y="330" width="120" height="60" as="geometry" />
        </mxCell>
        <mxCell id="z6YjeSEmc34uNPCmeLSA-43" value="executeNodeScript:&lt;br&gt;&amp;nbsp;react-scripts/init()" style="rounded=1;whiteSpace=wrap;html=1;labelBackgroundColor=#FFFFFF;" vertex="1" parent="77e6c97f196da883-5">
          <mxGeometry x="110" y="530" width="120" height="80" as="geometry" />
        </mxCell>
        <mxCell id="77e6c97f196da883-6" value="install" style="swimlane;html=1;startSize=20;" parent="77e6c97f196da883-1" vertex="1">
          <mxGeometry x="1030" y="20" width="330" height="760" as="geometry" />
        </mxCell>
        <mxCell id="z6YjeSEmc34uNPCmeLSA-71" style="edgeStyle=orthogonalEdgeStyle;rounded=0;orthogonalLoop=1;jettySize=auto;html=1;entryX=0.5;entryY=0;entryDx=0;entryDy=0;" edge="1" parent="77e6c97f196da883-6" source="z6YjeSEmc34uNPCmeLSA-40" target="z6YjeSEmc34uNPCmeLSA-44">
          <mxGeometry relative="1" as="geometry" />
        </mxCell>
        <mxCell id="z6YjeSEmc34uNPCmeLSA-40" value="install" style="rounded=1;whiteSpace=wrap;html=1;labelBackgroundColor=#FFFFFF;" vertex="1" parent="77e6c97f196da883-6">
          <mxGeometry x="80" y="80" width="120" height="60" as="geometry" />
        </mxCell>
        <mxCell id="z6YjeSEmc34uNPCmeLSA-72" style="edgeStyle=orthogonalEdgeStyle;rounded=0;orthogonalLoop=1;jettySize=auto;html=1;entryX=0.433;entryY=-0.017;entryDx=0;entryDy=0;entryPerimeter=0;" edge="1" parent="77e6c97f196da883-6" source="z6YjeSEmc34uNPCmeLSA-44" target="z6YjeSEmc34uNPCmeLSA-45">
          <mxGeometry relative="1" as="geometry">
            <Array as="points">
              <mxPoint x="72" y="250" />
            </Array>
          </mxGeometry>
        </mxCell>
        <mxCell id="z6YjeSEmc34uNPCmeLSA-74" value="yarn" style="edgeLabel;html=1;align=center;verticalAlign=middle;resizable=0;points=[];" vertex="1" connectable="0" parent="z6YjeSEmc34uNPCmeLSA-72">
          <mxGeometry x="-0.015" y="1" relative="1" as="geometry">
            <mxPoint as="offset" />
          </mxGeometry>
        </mxCell>
        <mxCell id="z6YjeSEmc34uNPCmeLSA-73" style="edgeStyle=orthogonalEdgeStyle;rounded=0;orthogonalLoop=1;jettySize=auto;html=1;entryX=0.5;entryY=0;entryDx=0;entryDy=0;" edge="1" parent="77e6c97f196da883-6" source="z6YjeSEmc34uNPCmeLSA-44" target="z6YjeSEmc34uNPCmeLSA-46">
          <mxGeometry relative="1" as="geometry">
            <Array as="points">
              <mxPoint x="230" y="250" />
            </Array>
          </mxGeometry>
        </mxCell>
        <mxCell id="z6YjeSEmc34uNPCmeLSA-75" value="npm" style="edgeLabel;html=1;align=center;verticalAlign=middle;resizable=0;points=[];" vertex="1" connectable="0" parent="z6YjeSEmc34uNPCmeLSA-73">
          <mxGeometry x="0.1742" y="2" relative="1" as="geometry">
            <mxPoint as="offset" />
          </mxGeometry>
        </mxCell>
        <mxCell id="z6YjeSEmc34uNPCmeLSA-44" value="yarn or npm" style="rhombus;whiteSpace=wrap;html=1;labelBackgroundColor=#FFFFFF;" vertex="1" parent="77e6c97f196da883-6">
          <mxGeometry x="100" y="210" width="80" height="80" as="geometry" />
        </mxCell>
        <mxCell id="z6YjeSEmc34uNPCmeLSA-45" value="yarnpkg add" style="rounded=1;whiteSpace=wrap;html=1;labelBackgroundColor=#FFFFFF;" vertex="1" parent="77e6c97f196da883-6">
          <mxGeometry x="20" y="355" width="120" height="60" as="geometry" />
        </mxCell>
        <mxCell id="z6YjeSEmc34uNPCmeLSA-46" value="npm install" style="rounded=1;whiteSpace=wrap;html=1;labelBackgroundColor=#FFFFFF;" vertex="1" parent="77e6c97f196da883-6">
          <mxGeometry x="170" y="355" width="120" height="60" as="geometry" />
        </mxCell>
        <mxCell id="z6YjeSEmc34uNPCmeLSA-42" style="edgeStyle=orthogonalEdgeStyle;rounded=0;orthogonalLoop=1;jettySize=auto;html=1;entryX=0;entryY=0.5;entryDx=0;entryDy=0;" edge="1" parent="77e6c97f196da883-1" source="z6YjeSEmc34uNPCmeLSA-39" target="z6YjeSEmc34uNPCmeLSA-40">
          <mxGeometry relative="1" as="geometry">
            <Array as="points">
              <mxPoint x="990" y="380" />
              <mxPoint x="990" y="130" />
            </Array>
          </mxGeometry>
        </mxCell>
        <mxCell id="z6YjeSEmc34uNPCmeLSA-52" style="edgeStyle=orthogonalEdgeStyle;rounded=0;orthogonalLoop=1;jettySize=auto;html=1;entryX=0;entryY=0.5;entryDx=0;entryDy=0;" edge="1" parent="77e6c97f196da883-1" source="z6YjeSEmc34uNPCmeLSA-2" target="z6YjeSEmc34uNPCmeLSA-25">
          <mxGeometry relative="1" as="geometry">
            <Array as="points">
              <mxPoint x="300" y="390" />
              <mxPoint x="300" y="90" />
            </Array>
          </mxGeometry>
        </mxCell>
        <mxCell id="z6YjeSEmc34uNPCmeLSA-68" style="edgeStyle=orthogonalEdgeStyle;rounded=0;orthogonalLoop=1;jettySize=auto;html=1;entryX=0;entryY=0.5;entryDx=0;entryDy=0;" edge="1" parent="77e6c97f196da883-1" source="z6YjeSEmc34uNPCmeLSA-36" target="z6YjeSEmc34uNPCmeLSA-37">
          <mxGeometry relative="1" as="geometry" />
        </mxCell>
        <mxCell id="z6YjeSEmc34uNPCmeLSA-76" style="edgeStyle=orthogonalEdgeStyle;rounded=0;orthogonalLoop=1;jettySize=auto;html=1;entryX=0.5;entryY=0;entryDx=0;entryDy=0;" edge="1" parent="77e6c97f196da883-1" source="z6YjeSEmc34uNPCmeLSA-45" target="z6YjeSEmc34uNPCmeLSA-43">
          <mxGeometry relative="1" as="geometry">
            <Array as="points">
              <mxPoint x="1140" y="500" />
              <mxPoint x="890" y="500" />
            </Array>
          </mxGeometry>
        </mxCell>
        <mxCell id="z6YjeSEmc34uNPCmeLSA-77" style="edgeStyle=orthogonalEdgeStyle;rounded=0;orthogonalLoop=1;jettySize=auto;html=1;entryX=0.5;entryY=0;entryDx=0;entryDy=0;" edge="1" parent="77e6c97f196da883-1" source="z6YjeSEmc34uNPCmeLSA-46" target="z6YjeSEmc34uNPCmeLSA-43">
          <mxGeometry relative="1" as="geometry">
            <Array as="points">
              <mxPoint x="1290" y="500" />
              <mxPoint x="890" y="500" />
            </Array>
          </mxGeometry>
        </mxCell>
        <mxCell id="z6YjeSEmc34uNPCmeLSA-54" value="小于14" style="text;html=1;align=center;verticalAlign=middle;resizable=0;points=[];autosize=1;strokeColor=none;fillColor=none;" vertex="1" parent="1">
          <mxGeometry x="95" y="330" width="50" height="20" as="geometry" />
        </mxCell>
      </root>
    </mxGraphModel>
  </diagram>
</mxfile>
